<mxfile host="www.draw.io" modified="2019-12-02T02:48:56.443Z" agent="Mozilla/5.0 (Macintosh; Intel Mac OS X 10_15_0) AppleWebKit/537.36 (KHTML, like Gecko) Chrome/78.0.3904.108 Safari/537.36" etag="5ply-oz7f5sBWP9U1JNM" version="12.3.3" type="github" pages="2">
  <diagram id="WC2CbO6cNntMf5jrntyh" name="第 1 页">
    <mxGraphModel dx="763" dy="421" grid="1" gridSize="10" guides="1" tooltips="1" connect="1" arrows="1" fold="1" page="1" pageScale="1" pageWidth="3300" pageHeight="4681" math="0" shadow="0">
      <root>
        <mxCell id="0"/>
        <mxCell id="1" parent="0"/>
        <mxCell id="h7FLI7bui8fmI9zWMLrp-3" value="child" style="edgeStyle=orthogonalEdgeStyle;rounded=0;orthogonalLoop=1;jettySize=auto;html=1;" edge="1" parent="1" source="h7FLI7bui8fmI9zWMLrp-1" target="h7FLI7bui8fmI9zWMLrp-2">
          <mxGeometry relative="1" as="geometry"/>
        </mxCell>
        <mxCell id="h7FLI7bui8fmI9zWMLrp-1" value="HostRoot" style="rounded=1;whiteSpace=wrap;html=1;" vertex="1" parent="1">
          <mxGeometry x="110" y="80" width="120" height="40" as="geometry"/>
        </mxCell>
        <mxCell id="h7FLI7bui8fmI9zWMLrp-5" value="child" style="edgeStyle=orthogonalEdgeStyle;rounded=0;orthogonalLoop=1;jettySize=auto;html=1;" edge="1" parent="1" source="h7FLI7bui8fmI9zWMLrp-2" target="h7FLI7bui8fmI9zWMLrp-4">
          <mxGeometry relative="1" as="geometry"/>
        </mxCell>
        <mxCell id="h7FLI7bui8fmI9zWMLrp-2" value="div" style="rounded=1;whiteSpace=wrap;html=1;" vertex="1" parent="1">
          <mxGeometry x="110" y="170" width="120" height="40" as="geometry"/>
        </mxCell>
        <mxCell id="h7FLI7bui8fmI9zWMLrp-12" value="child" style="edgeStyle=orthogonalEdgeStyle;rounded=0;orthogonalLoop=1;jettySize=auto;html=1;" edge="1" parent="1" source="h7FLI7bui8fmI9zWMLrp-4" target="h7FLI7bui8fmI9zWMLrp-11">
          <mxGeometry relative="1" as="geometry"/>
        </mxCell>
        <mxCell id="h7FLI7bui8fmI9zWMLrp-4" value="h1" style="rounded=1;whiteSpace=wrap;html=1;" vertex="1" parent="1">
          <mxGeometry x="110" y="260" width="120" height="40" as="geometry"/>
        </mxCell>
        <mxCell id="h7FLI7bui8fmI9zWMLrp-14" value="sibling" style="edgeStyle=orthogonalEdgeStyle;rounded=0;orthogonalLoop=1;jettySize=auto;html=1;" edge="1" parent="1" source="h7FLI7bui8fmI9zWMLrp-11" target="h7FLI7bui8fmI9zWMLrp-13">
          <mxGeometry relative="1" as="geometry"/>
        </mxCell>
        <mxCell id="h7FLI7bui8fmI9zWMLrp-11" value="p" style="rounded=1;whiteSpace=wrap;html=1;" vertex="1" parent="1">
          <mxGeometry x="110" y="370" width="120" height="40" as="geometry"/>
        </mxCell>
        <mxCell id="h7FLI7bui8fmI9zWMLrp-13" value="a" style="rounded=1;whiteSpace=wrap;html=1;" vertex="1" parent="1">
          <mxGeometry x="310" y="370" width="120" height="40" as="geometry"/>
        </mxCell>
        <mxCell id="h7FLI7bui8fmI9zWMLrp-8" value="return" style="endArrow=classic;html=1;entryX=0.75;entryY=1;entryDx=0;entryDy=0;exitX=0.75;exitY=0;exitDx=0;exitDy=0;" edge="1" parent="1" source="h7FLI7bui8fmI9zWMLrp-2" target="h7FLI7bui8fmI9zWMLrp-1">
          <mxGeometry width="50" height="50" relative="1" as="geometry">
            <mxPoint x="190" y="170" as="sourcePoint"/>
            <mxPoint x="240" y="120" as="targetPoint"/>
          </mxGeometry>
        </mxCell>
        <mxCell id="h7FLI7bui8fmI9zWMLrp-9" value="return" style="endArrow=classic;html=1;entryX=0.75;entryY=1;entryDx=0;entryDy=0;exitX=0.75;exitY=0;exitDx=0;exitDy=0;" edge="1" parent="1" source="h7FLI7bui8fmI9zWMLrp-4" target="h7FLI7bui8fmI9zWMLrp-2">
          <mxGeometry width="50" height="50" relative="1" as="geometry">
            <mxPoint x="190" y="260" as="sourcePoint"/>
            <mxPoint x="240" y="210" as="targetPoint"/>
          </mxGeometry>
        </mxCell>
        <mxCell id="h7FLI7bui8fmI9zWMLrp-15" value="return" style="endArrow=classic;html=1;entryX=0.75;entryY=1;entryDx=0;entryDy=0;exitX=0.75;exitY=0;exitDx=0;exitDy=0;" edge="1" parent="1" source="h7FLI7bui8fmI9zWMLrp-11" target="h7FLI7bui8fmI9zWMLrp-4">
          <mxGeometry width="50" height="50" relative="1" as="geometry">
            <mxPoint x="200" y="350" as="sourcePoint"/>
            <mxPoint x="250" y="330" as="targetPoint"/>
          </mxGeometry>
        </mxCell>
        <mxCell id="h7FLI7bui8fmI9zWMLrp-16" value="return" style="endArrow=classic;html=1;entryX=0.983;entryY=1.025;entryDx=0;entryDy=0;entryPerimeter=0;" edge="1" parent="1" target="h7FLI7bui8fmI9zWMLrp-4">
          <mxGeometry width="50" height="50" relative="1" as="geometry">
            <mxPoint x="370" y="370" as="sourcePoint"/>
            <mxPoint x="420" y="320" as="targetPoint"/>
          </mxGeometry>
        </mxCell>
        <mxCell id="h7FLI7bui8fmI9zWMLrp-17" value="current" style="text;html=1;strokeColor=none;fillColor=none;align=center;verticalAlign=middle;whiteSpace=wrap;rounded=0;fontSize=17;" vertex="1" parent="1">
          <mxGeometry x="160" y="30" width="40" height="20" as="geometry"/>
        </mxCell>
        <mxCell id="h7FLI7bui8fmI9zWMLrp-18" value="child" style="edgeStyle=orthogonalEdgeStyle;rounded=0;orthogonalLoop=1;jettySize=auto;html=1;" edge="1" parent="1" source="h7FLI7bui8fmI9zWMLrp-19" target="h7FLI7bui8fmI9zWMLrp-21">
          <mxGeometry relative="1" as="geometry"/>
        </mxCell>
        <mxCell id="h7FLI7bui8fmI9zWMLrp-19" value="HostRoot" style="rounded=1;whiteSpace=wrap;html=1;" vertex="1" parent="1">
          <mxGeometry x="470" y="80" width="120" height="40" as="geometry"/>
        </mxCell>
        <mxCell id="h7FLI7bui8fmI9zWMLrp-20" value="child" style="edgeStyle=orthogonalEdgeStyle;rounded=0;orthogonalLoop=1;jettySize=auto;html=1;" edge="1" parent="1" source="h7FLI7bui8fmI9zWMLrp-21" target="h7FLI7bui8fmI9zWMLrp-24">
          <mxGeometry relative="1" as="geometry"/>
        </mxCell>
        <mxCell id="h7FLI7bui8fmI9zWMLrp-21" value="div" style="rounded=1;whiteSpace=wrap;html=1;" vertex="1" parent="1">
          <mxGeometry x="470" y="170" width="120" height="40" as="geometry"/>
        </mxCell>
        <mxCell id="h7FLI7bui8fmI9zWMLrp-23" value="child" style="edgeStyle=orthogonalEdgeStyle;rounded=0;orthogonalLoop=1;jettySize=auto;html=1;" edge="1" parent="1" source="h7FLI7bui8fmI9zWMLrp-24" target="h7FLI7bui8fmI9zWMLrp-26">
          <mxGeometry relative="1" as="geometry"/>
        </mxCell>
        <mxCell id="h7FLI7bui8fmI9zWMLrp-24" value="h1" style="rounded=1;whiteSpace=wrap;html=1;" vertex="1" parent="1">
          <mxGeometry x="470" y="260" width="120" height="40" as="geometry"/>
        </mxCell>
        <mxCell id="h7FLI7bui8fmI9zWMLrp-25" value="sibling" style="edgeStyle=orthogonalEdgeStyle;rounded=0;orthogonalLoop=1;jettySize=auto;html=1;" edge="1" parent="1" source="h7FLI7bui8fmI9zWMLrp-26" target="h7FLI7bui8fmI9zWMLrp-27">
          <mxGeometry relative="1" as="geometry"/>
        </mxCell>
        <mxCell id="h7FLI7bui8fmI9zWMLrp-26" value="p" style="rounded=1;whiteSpace=wrap;html=1;" vertex="1" parent="1">
          <mxGeometry x="470" y="370" width="120" height="40" as="geometry"/>
        </mxCell>
        <mxCell id="h7FLI7bui8fmI9zWMLrp-27" value="input" style="rounded=1;whiteSpace=wrap;html=1;fontColor=#FF3333;strokeColor=#FF3333;" vertex="1" parent="1">
          <mxGeometry x="670" y="370" width="120" height="40" as="geometry"/>
        </mxCell>
        <mxCell id="h7FLI7bui8fmI9zWMLrp-29" value="return" style="endArrow=classic;html=1;entryX=0.75;entryY=1;entryDx=0;entryDy=0;exitX=0.75;exitY=0;exitDx=0;exitDy=0;" edge="1" parent="1" source="h7FLI7bui8fmI9zWMLrp-21" target="h7FLI7bui8fmI9zWMLrp-19">
          <mxGeometry width="50" height="50" relative="1" as="geometry">
            <mxPoint x="550" y="170" as="sourcePoint"/>
            <mxPoint x="600" y="120" as="targetPoint"/>
          </mxGeometry>
        </mxCell>
        <mxCell id="h7FLI7bui8fmI9zWMLrp-30" value="return" style="endArrow=classic;html=1;entryX=0.75;entryY=1;entryDx=0;entryDy=0;exitX=0.75;exitY=0;exitDx=0;exitDy=0;" edge="1" parent="1" source="h7FLI7bui8fmI9zWMLrp-24" target="h7FLI7bui8fmI9zWMLrp-21">
          <mxGeometry width="50" height="50" relative="1" as="geometry">
            <mxPoint x="550" y="260" as="sourcePoint"/>
            <mxPoint x="600" y="210" as="targetPoint"/>
          </mxGeometry>
        </mxCell>
        <mxCell id="h7FLI7bui8fmI9zWMLrp-32" value="return" style="endArrow=classic;html=1;entryX=0.75;entryY=1;entryDx=0;entryDy=0;exitX=0.75;exitY=0;exitDx=0;exitDy=0;" edge="1" parent="1" source="h7FLI7bui8fmI9zWMLrp-26" target="h7FLI7bui8fmI9zWMLrp-24">
          <mxGeometry width="50" height="50" relative="1" as="geometry">
            <mxPoint x="560" y="350" as="sourcePoint"/>
            <mxPoint x="610" y="330" as="targetPoint"/>
          </mxGeometry>
        </mxCell>
        <mxCell id="h7FLI7bui8fmI9zWMLrp-33" value="return" style="endArrow=classic;html=1;entryX=0.983;entryY=1.025;entryDx=0;entryDy=0;entryPerimeter=0;" edge="1" parent="1" target="h7FLI7bui8fmI9zWMLrp-24">
          <mxGeometry width="50" height="50" relative="1" as="geometry">
            <mxPoint x="730" y="370" as="sourcePoint"/>
            <mxPoint x="780" y="320" as="targetPoint"/>
          </mxGeometry>
        </mxCell>
        <mxCell id="h7FLI7bui8fmI9zWMLrp-34" value="workInprogress" style="text;html=1;strokeColor=none;fillColor=none;align=center;verticalAlign=middle;whiteSpace=wrap;rounded=0;fontSize=17;" vertex="1" parent="1">
          <mxGeometry x="520" y="30" width="40" height="20" as="geometry"/>
        </mxCell>
        <mxCell id="h7FLI7bui8fmI9zWMLrp-39" value="" style="endArrow=classic;html=1;dashed=1;fontSize=17;fontColor=#FF3333;entryX=0;entryY=0.5;entryDx=0;entryDy=0;exitX=1;exitY=0.5;exitDx=0;exitDy=0;strokeColor=#007FFF;" edge="1" parent="1" source="h7FLI7bui8fmI9zWMLrp-1" target="h7FLI7bui8fmI9zWMLrp-19">
          <mxGeometry width="50" height="50" relative="1" as="geometry">
            <mxPoint x="230" y="105" as="sourcePoint"/>
            <mxPoint x="280" y="55" as="targetPoint"/>
          </mxGeometry>
        </mxCell>
        <mxCell id="h7FLI7bui8fmI9zWMLrp-40" value="" style="endArrow=classic;html=1;dashed=1;fontSize=17;fontColor=#FF3333;entryX=0;entryY=0.5;entryDx=0;entryDy=0;exitX=1;exitY=0.5;exitDx=0;exitDy=0;strokeColor=#007FFF;" edge="1" parent="1">
          <mxGeometry width="50" height="50" relative="1" as="geometry">
            <mxPoint x="230" y="189" as="sourcePoint"/>
            <mxPoint x="470" y="189" as="targetPoint"/>
          </mxGeometry>
        </mxCell>
        <mxCell id="h7FLI7bui8fmI9zWMLrp-41" value="" style="endArrow=classic;html=1;dashed=1;fontSize=17;fontColor=#FF3333;entryX=0;entryY=0.5;entryDx=0;entryDy=0;exitX=1;exitY=0.5;exitDx=0;exitDy=0;strokeColor=#007FFF;" edge="1" parent="1">
          <mxGeometry width="50" height="50" relative="1" as="geometry">
            <mxPoint x="230" y="270" as="sourcePoint"/>
            <mxPoint x="470" y="270" as="targetPoint"/>
          </mxGeometry>
        </mxCell>
        <mxCell id="h7FLI7bui8fmI9zWMLrp-42" value="" style="endArrow=classic;html=1;dashed=1;fontSize=17;fontColor=#FF3333;entryX=0;entryY=0.5;entryDx=0;entryDy=0;exitX=1;exitY=0.5;exitDx=0;exitDy=0;strokeColor=#007FFF;" edge="1" parent="1">
          <mxGeometry width="50" height="50" relative="1" as="geometry">
            <mxPoint x="230" y="380" as="sourcePoint"/>
            <mxPoint x="470" y="380" as="targetPoint"/>
          </mxGeometry>
        </mxCell>
        <mxCell id="h7FLI7bui8fmI9zWMLrp-43" value="" style="endArrow=classic;html=1;dashed=1;fontSize=17;fontColor=#FF3333;entryX=0;entryY=0.5;entryDx=0;entryDy=0;exitX=1;exitY=0.5;exitDx=0;exitDy=0;strokeColor=#FF3333;" edge="1" parent="1">
          <mxGeometry width="50" height="50" relative="1" as="geometry">
            <mxPoint x="432" y="400" as="sourcePoint"/>
            <mxPoint x="672" y="400" as="targetPoint"/>
          </mxGeometry>
        </mxCell>
        <mxCell id="h7FLI7bui8fmI9zWMLrp-44" value="Update" style="text;html=1;strokeColor=none;fillColor=none;align=center;verticalAlign=middle;whiteSpace=wrap;rounded=0;fontSize=17;fontColor=#007FFF;" vertex="1" parent="1">
          <mxGeometry x="320" y="70" width="40" height="20" as="geometry"/>
        </mxCell>
        <mxCell id="h7FLI7bui8fmI9zWMLrp-46" value="Update" style="text;html=1;strokeColor=none;fillColor=none;align=center;verticalAlign=middle;whiteSpace=wrap;rounded=0;fontSize=17;fontColor=#007FFF;" vertex="1" parent="1">
          <mxGeometry x="330" y="160" width="40" height="20" as="geometry"/>
        </mxCell>
        <mxCell id="h7FLI7bui8fmI9zWMLrp-47" value="Update" style="text;html=1;strokeColor=none;fillColor=none;align=center;verticalAlign=middle;whiteSpace=wrap;rounded=0;fontSize=17;fontColor=#007FFF;" vertex="1" parent="1">
          <mxGeometry x="340" y="240" width="40" height="20" as="geometry"/>
        </mxCell>
        <mxCell id="h7FLI7bui8fmI9zWMLrp-48" value="Update" style="text;html=1;strokeColor=none;fillColor=none;align=center;verticalAlign=middle;whiteSpace=wrap;rounded=0;fontSize=17;fontColor=#007FFF;" vertex="1" parent="1">
          <mxGeometry x="270" y="350" width="40" height="20" as="geometry"/>
        </mxCell>
        <mxCell id="h7FLI7bui8fmI9zWMLrp-49" value="Placement" style="text;html=1;strokeColor=none;fillColor=none;align=center;verticalAlign=middle;whiteSpace=wrap;rounded=0;fontSize=17;fontColor=#FF3333;" vertex="1" parent="1">
          <mxGeometry x="560" y="420" width="40" height="20" as="geometry"/>
        </mxCell>
        <mxCell id="h7FLI7bui8fmI9zWMLrp-51" value="" style="endArrow=classic;html=1;dashed=1;strokeColor=#FF3333;fontSize=17;fontColor=#FF3333;" edge="1" parent="1">
          <mxGeometry width="50" height="50" relative="1" as="geometry">
            <mxPoint x="220" y="49" as="sourcePoint"/>
            <mxPoint x="470" y="49" as="targetPoint"/>
          </mxGeometry>
        </mxCell>
        <mxCell id="h7FLI7bui8fmI9zWMLrp-52" value="alternate" style="text;html=1;strokeColor=none;fillColor=none;align=center;verticalAlign=middle;whiteSpace=wrap;rounded=0;fontSize=17;fontColor=#FF3333;" vertex="1" parent="1">
          <mxGeometry x="340" y="20" width="40" height="20" as="geometry"/>
        </mxCell>
      </root>
    </mxGraphModel>
  </diagram>
  <diagram id="tNe4uy5rhXMEg-KPup6C" name="第 2 页">
    <mxGraphModel dx="763" dy="421" grid="1" gridSize="10" guides="1" tooltips="1" connect="1" arrows="1" fold="1" page="1" pageScale="1" pageWidth="3300" pageHeight="4681" math="0" shadow="0">
      <root>
        <mxCell id="LktfsgJ6pSFicoOyOyu1-0"/>
        <mxCell id="LktfsgJ6pSFicoOyOyu1-1" parent="LktfsgJ6pSFicoOyOyu1-0"/>
        <mxCell id="R-dp3w46m_JQegVs6_rW-40" value="child" style="edgeStyle=orthogonalEdgeStyle;rounded=0;orthogonalLoop=1;jettySize=auto;html=1;" edge="1" parent="LktfsgJ6pSFicoOyOyu1-1" source="R-dp3w46m_JQegVs6_rW-41" target="R-dp3w46m_JQegVs6_rW-43">
          <mxGeometry relative="1" as="geometry"/>
        </mxCell>
        <mxCell id="R-dp3w46m_JQegVs6_rW-41" value="HostRoot" style="rounded=1;whiteSpace=wrap;html=1;" vertex="1" parent="LktfsgJ6pSFicoOyOyu1-1">
          <mxGeometry x="120" y="90" width="120" height="40" as="geometry"/>
        </mxCell>
        <mxCell id="R-dp3w46m_JQegVs6_rW-42" value="child" style="edgeStyle=orthogonalEdgeStyle;rounded=0;orthogonalLoop=1;jettySize=auto;html=1;" edge="1" parent="LktfsgJ6pSFicoOyOyu1-1" source="R-dp3w46m_JQegVs6_rW-43" target="R-dp3w46m_JQegVs6_rW-45">
          <mxGeometry relative="1" as="geometry"/>
        </mxCell>
        <mxCell id="R-dp3w46m_JQegVs6_rW-43" value="div" style="rounded=1;whiteSpace=wrap;html=1;" vertex="1" parent="LktfsgJ6pSFicoOyOyu1-1">
          <mxGeometry x="120" y="180" width="120" height="40" as="geometry"/>
        </mxCell>
        <mxCell id="R-dp3w46m_JQegVs6_rW-44" value="child" style="edgeStyle=orthogonalEdgeStyle;rounded=0;orthogonalLoop=1;jettySize=auto;html=1;" edge="1" parent="LktfsgJ6pSFicoOyOyu1-1" source="R-dp3w46m_JQegVs6_rW-45" target="R-dp3w46m_JQegVs6_rW-47">
          <mxGeometry relative="1" as="geometry"/>
        </mxCell>
        <mxCell id="R-dp3w46m_JQegVs6_rW-45" value="h1" style="rounded=1;whiteSpace=wrap;html=1;" vertex="1" parent="LktfsgJ6pSFicoOyOyu1-1">
          <mxGeometry x="120" y="270" width="120" height="40" as="geometry"/>
        </mxCell>
        <mxCell id="R-dp3w46m_JQegVs6_rW-46" value="sibling" style="edgeStyle=orthogonalEdgeStyle;rounded=0;orthogonalLoop=1;jettySize=auto;html=1;" edge="1" parent="LktfsgJ6pSFicoOyOyu1-1" source="R-dp3w46m_JQegVs6_rW-47" target="R-dp3w46m_JQegVs6_rW-48">
          <mxGeometry relative="1" as="geometry"/>
        </mxCell>
        <mxCell id="R-dp3w46m_JQegVs6_rW-47" value="p" style="rounded=1;whiteSpace=wrap;html=1;" vertex="1" parent="LktfsgJ6pSFicoOyOyu1-1">
          <mxGeometry x="120" y="380" width="120" height="40" as="geometry"/>
        </mxCell>
        <mxCell id="R-dp3w46m_JQegVs6_rW-48" value="a" style="rounded=1;whiteSpace=wrap;html=1;" vertex="1" parent="LktfsgJ6pSFicoOyOyu1-1">
          <mxGeometry x="320" y="380" width="120" height="40" as="geometry"/>
        </mxCell>
        <mxCell id="R-dp3w46m_JQegVs6_rW-49" value="return" style="endArrow=classic;html=1;entryX=0.75;entryY=1;entryDx=0;entryDy=0;exitX=0.75;exitY=0;exitDx=0;exitDy=0;" edge="1" parent="LktfsgJ6pSFicoOyOyu1-1" source="R-dp3w46m_JQegVs6_rW-43" target="R-dp3w46m_JQegVs6_rW-41">
          <mxGeometry width="50" height="50" relative="1" as="geometry">
            <mxPoint x="200" y="180" as="sourcePoint"/>
            <mxPoint x="250" y="130" as="targetPoint"/>
          </mxGeometry>
        </mxCell>
        <mxCell id="R-dp3w46m_JQegVs6_rW-50" value="return" style="endArrow=classic;html=1;entryX=0.75;entryY=1;entryDx=0;entryDy=0;exitX=0.75;exitY=0;exitDx=0;exitDy=0;" edge="1" parent="LktfsgJ6pSFicoOyOyu1-1" source="R-dp3w46m_JQegVs6_rW-45" target="R-dp3w46m_JQegVs6_rW-43">
          <mxGeometry width="50" height="50" relative="1" as="geometry">
            <mxPoint x="200" y="270" as="sourcePoint"/>
            <mxPoint x="250" y="220" as="targetPoint"/>
          </mxGeometry>
        </mxCell>
        <mxCell id="R-dp3w46m_JQegVs6_rW-51" value="return" style="endArrow=classic;html=1;entryX=0.75;entryY=1;entryDx=0;entryDy=0;exitX=0.75;exitY=0;exitDx=0;exitDy=0;" edge="1" parent="LktfsgJ6pSFicoOyOyu1-1" source="R-dp3w46m_JQegVs6_rW-47" target="R-dp3w46m_JQegVs6_rW-45">
          <mxGeometry width="50" height="50" relative="1" as="geometry">
            <mxPoint x="210" y="360" as="sourcePoint"/>
            <mxPoint x="260" y="340" as="targetPoint"/>
          </mxGeometry>
        </mxCell>
        <mxCell id="R-dp3w46m_JQegVs6_rW-52" value="return" style="endArrow=classic;html=1;entryX=0.983;entryY=1.025;entryDx=0;entryDy=0;entryPerimeter=0;" edge="1" parent="LktfsgJ6pSFicoOyOyu1-1" target="R-dp3w46m_JQegVs6_rW-45">
          <mxGeometry width="50" height="50" relative="1" as="geometry">
            <mxPoint x="380" y="380" as="sourcePoint"/>
            <mxPoint x="430" y="330" as="targetPoint"/>
          </mxGeometry>
        </mxCell>
        <mxCell id="R-dp3w46m_JQegVs6_rW-53" value="RootFiber" style="text;html=1;strokeColor=none;fillColor=none;align=center;verticalAlign=middle;whiteSpace=wrap;rounded=0;fontSize=17;" vertex="1" parent="LktfsgJ6pSFicoOyOyu1-1">
          <mxGeometry x="170" y="40" width="40" height="20" as="geometry"/>
        </mxCell>
        <mxCell id="R-dp3w46m_JQegVs6_rW-80" value="Dom" style="text;html=1;strokeColor=none;fillColor=none;align=center;verticalAlign=middle;whiteSpace=wrap;rounded=0;fontSize=17;" vertex="1" parent="LktfsgJ6pSFicoOyOyu1-1">
          <mxGeometry x="560" y="40" width="40" height="20" as="geometry"/>
        </mxCell>
        <mxCell id="R-dp3w46m_JQegVs6_rW-81" value="&lt;font color=&quot;#000000&quot;&gt;UI界面&lt;/font&gt;" style="rounded=0;whiteSpace=wrap;html=1;strokeColor=#000000;fillColor=none;fontSize=17;fontColor=#FF3333;" vertex="1" parent="LktfsgJ6pSFicoOyOyu1-1">
          <mxGeometry x="660" y="70" width="140" height="93" as="geometry"/>
        </mxCell>
        <mxCell id="6T3hISZj3Wiu_F04__pw-0" value="" style="endArrow=classic;html=1;dashed=1;strokeColor=#000000;fontSize=17;fontColor=#FF3333;exitX=0;exitY=0.5;exitDx=0;exitDy=0;entryX=1;entryY=0.365;entryDx=0;entryDy=0;entryPerimeter=0;" edge="1" parent="LktfsgJ6pSFicoOyOyu1-1" source="R-dp3w46m_JQegVs6_rW-81" target="6T3hISZj3Wiu_F04__pw-1">
          <mxGeometry width="50" height="50" relative="1" as="geometry">
            <mxPoint x="560" y="166.5" as="sourcePoint"/>
            <mxPoint x="560" y="160" as="targetPoint"/>
          </mxGeometry>
        </mxCell>
        <mxCell id="6T3hISZj3Wiu_F04__pw-4" value="&lt;font style=&quot;font-size: 13px&quot; color=&quot;#0066cc&quot;&gt;type不变，只需要更新props&lt;/font&gt;" style="edgeStyle=orthogonalEdgeStyle;rounded=0;orthogonalLoop=1;jettySize=auto;html=1;dashed=1;strokeColor=#000000;fontSize=17;fontColor=#FF3333;" edge="1" parent="LktfsgJ6pSFicoOyOyu1-1" source="6T3hISZj3Wiu_F04__pw-1" target="6T3hISZj3Wiu_F04__pw-3">
          <mxGeometry relative="1" as="geometry"/>
        </mxCell>
        <mxCell id="6T3hISZj3Wiu_F04__pw-1" value="&lt;font color=&quot;#000000&quot; style=&quot;font-size: 14px;&quot;&gt;#app&lt;/font&gt;" style="rounded=1;whiteSpace=wrap;html=1;strokeColor=#000000;fillColor=none;fontSize=14;fontColor=#FF3333;" vertex="1" parent="LktfsgJ6pSFicoOyOyu1-1">
          <mxGeometry x="520" y="116.5" width="80" height="37" as="geometry"/>
        </mxCell>
        <mxCell id="6T3hISZj3Wiu_F04__pw-6" value="&lt;span style=&quot;color: rgb(0 , 102 , 204) ; font-size: 13px&quot;&gt;type不变，只需要更新props&lt;/span&gt;" style="edgeStyle=orthogonalEdgeStyle;rounded=0;orthogonalLoop=1;jettySize=auto;html=1;dashed=1;strokeColor=#000000;fontSize=17;fontColor=#FF3333;" edge="1" parent="LktfsgJ6pSFicoOyOyu1-1" source="6T3hISZj3Wiu_F04__pw-3" target="6T3hISZj3Wiu_F04__pw-5">
          <mxGeometry relative="1" as="geometry"/>
        </mxCell>
        <mxCell id="6T3hISZj3Wiu_F04__pw-3" value="&lt;font color=&quot;#000000&quot; style=&quot;font-size: 14px;&quot;&gt;div&lt;/font&gt;" style="rounded=1;whiteSpace=wrap;html=1;strokeColor=#000000;fillColor=none;fontSize=14;fontColor=#FF3333;" vertex="1" parent="LktfsgJ6pSFicoOyOyu1-1">
          <mxGeometry x="520" y="213.5" width="80" height="37" as="geometry"/>
        </mxCell>
        <mxCell id="6T3hISZj3Wiu_F04__pw-8" value="&lt;span style=&quot;color: rgb(0 , 102 , 204) ; font-size: 13px&quot;&gt;type不变，只需要更新props&lt;/span&gt;" style="edgeStyle=orthogonalEdgeStyle;rounded=0;orthogonalLoop=1;jettySize=auto;html=1;dashed=1;strokeColor=#000000;fontSize=14;fontColor=#FF3333;" edge="1" parent="LktfsgJ6pSFicoOyOyu1-1" source="6T3hISZj3Wiu_F04__pw-5" target="6T3hISZj3Wiu_F04__pw-7">
          <mxGeometry relative="1" as="geometry"/>
        </mxCell>
        <mxCell id="6T3hISZj3Wiu_F04__pw-5" value="&lt;font color=&quot;#000000&quot; style=&quot;font-size: 14px;&quot;&gt;h1&lt;/font&gt;" style="rounded=1;whiteSpace=wrap;html=1;strokeColor=#000000;fillColor=none;fontSize=14;fontColor=#FF3333;" vertex="1" parent="LktfsgJ6pSFicoOyOyu1-1">
          <mxGeometry x="520" y="300" width="80" height="37" as="geometry"/>
        </mxCell>
        <mxCell id="6T3hISZj3Wiu_F04__pw-10" value="sibling" style="edgeStyle=orthogonalEdgeStyle;rounded=0;orthogonalLoop=1;jettySize=auto;html=1;dashed=1;strokeColor=#FF3333;fontSize=14;fontColor=#FF3333;" edge="1" parent="LktfsgJ6pSFicoOyOyu1-1" source="6T3hISZj3Wiu_F04__pw-7">
          <mxGeometry x="0.0667" relative="1" as="geometry">
            <mxPoint x="750" y="398.5" as="targetPoint"/>
            <mxPoint as="offset"/>
          </mxGeometry>
        </mxCell>
        <mxCell id="6T3hISZj3Wiu_F04__pw-7" value="&lt;font color=&quot;#000000&quot; style=&quot;font-size: 14px&quot;&gt;p&lt;/font&gt;" style="rounded=1;whiteSpace=wrap;html=1;strokeColor=#000000;fillColor=none;fontSize=14;fontColor=#FF3333;" vertex="1" parent="LktfsgJ6pSFicoOyOyu1-1">
          <mxGeometry x="520" y="380" width="80" height="37" as="geometry"/>
        </mxCell>
        <mxCell id="0DXH24nC7Bz-D3fm-mnI-0" value="input" style="rounded=1;whiteSpace=wrap;html=1;fontColor=#FF3333;strokeColor=#FF3333;" vertex="1" parent="LktfsgJ6pSFicoOyOyu1-1">
          <mxGeometry x="750" y="377" width="80" height="40" as="geometry"/>
        </mxCell>
        <mxCell id="0DXH24nC7Bz-D3fm-mnI-1" value="type变了，父节点h1&lt;br&gt;直接appendChild" style="endArrow=classic;html=1;dashed=1;strokeColor=#FF3333;fontSize=14;fontColor=#FF3333;entryX=0.5;entryY=0;entryDx=0;entryDy=0;" edge="1" parent="LktfsgJ6pSFicoOyOyu1-1" target="0DXH24nC7Bz-D3fm-mnI-0">
          <mxGeometry width="50" height="50" relative="1" as="geometry">
            <mxPoint x="600" y="320" as="sourcePoint"/>
            <mxPoint x="650" y="270" as="targetPoint"/>
          </mxGeometry>
        </mxCell>
        <mxCell id="0DXH24nC7Bz-D3fm-mnI-2" value="Commit阶段" style="text;html=1;strokeColor=none;fillColor=none;align=center;verticalAlign=middle;whiteSpace=wrap;rounded=0;fontSize=14;fontColor=#FF3333;" vertex="1" parent="LktfsgJ6pSFicoOyOyu1-1">
          <mxGeometry x="360" y="20" width="100" height="20" as="geometry"/>
        </mxCell>
      </root>
    </mxGraphModel>
  </diagram>
</mxfile>
